<?xml version="1.0" standalone="no"?>
<!DOCTYPE svg PUBLIC "-//W3C//DTD SVG 20010904//EN"
 "http://www.w3.org/TR/2001/REC-SVG-20010904/DTD/svg10.dtd">
<svg version="1.0" xmlns="http://www.w3.org/2000/svg"
 width="294.000000pt" height="299.000000pt" viewBox="0 0 294.000000 299.000000"
 preserveAspectRatio="xMidYMid meet">

<g transform="translate(0.000000,299.000000) scale(0.100000,-0.100000)"
fill="#000000" stroke="none">
<path d="M1130 2459 c-519 -64 -936 -450 -1040 -961 -44 -214 -23 -466 57
-674 34 -91 39 -98 132 -187 149 -142 310 -256 460 -324 83 -38 275 -102 283
-95 3 4 14 60 23 124 22 148 15 172 -61 230 -103 78 -148 226 -89 296 27 32
32 66 13 79 -7 4 -31 13 -53 18 -34 9 -46 21 -80 72 -39 60 -42 62 -144 105
-117 48 -121 52 -171 178 -40 99 -52 123 -67 128 -9 2 -13 -8 -14 -30 -2 -61
-30 59 -30 129 -1 71 17 116 88 231 45 71 48 81 49 145 0 45 5 72 15 81 31 30
191 114 228 120 23 3 70 27 114 57 55 37 83 50 104 47 47 -5 39 -31 -16 -51
-60 -21 -111 -62 -111 -88 0 -26 60 -25 119 1 52 24 104 26 125 4 30 -29 20
-44 -29 -44 -38 0 -47 -4 -56 -24 -7 -15 -26 -28 -51 -35 -21 -7 -42 -19 -45
-26 -8 -21 34 -83 69 -101 46 -24 71 -15 86 31 7 22 20 47 28 55 14 13 18 12
39 -12 16 -19 34 -28 55 -28 28 0 30 -3 30 -35 0 -28 5 -37 24 -44 12 -5 32
-25 43 -44 19 -32 19 -35 4 -56 -16 -21 -18 -21 -54 -6 -46 19 -76 19 -84 0
-3 -9 2 -24 11 -34 22 -24 20 -31 -9 -31 -54 0 -135 -67 -135 -112 0 -12 -22
-42 -50 -70 l-50 -49 14 -34 c17 -39 13 -45 -26 -45 -28 0 -28 0 -12 25 15 23
15 25 -2 32 -33 14 -179 9 -207 -6 -53 -28 -79 -131 -42 -171 25 -28 65 -25
116 10 57 39 65 38 40 -6 -30 -50 -27 -73 9 -81 33 -6 37 -15 15 -33 -22 -18
-19 -33 13 -62 59 -56 93 -58 161 -12 43 29 65 30 133 4 29 -11 68 -20 87 -20
22 0 44 -9 65 -27 18 -16 54 -43 79 -60 41 -29 47 -37 47 -68 0 -76 48 -110
136 -99 43 5 64 2 95 -11 46 -21 48 -32 14 -84 -14 -21 -42 -71 -63 -112 -34
-68 -42 -77 -95 -104 -33 -17 -82 -56 -115 -91 -44 -47 -69 -65 -109 -78 -61
-20 -103 -56 -103 -88 0 -23 2 -23 143 -26 165 -4 302 9 476 44 171 35 214 53
298 126 194 170 320 378 383 638 30 122 38 345 16 469 -9 52 -22 101 -28 108
-17 21 -62 15 -130 -17 -154 -73 -249 -20 -309 172 -62 201 -103 254 -255 329
-71 35 -114 63 -134 87 -55 67 -62 151 -20 230 16 29 17 39 7 48 -37 36 -311
62 -457 43z m178 -221 c25 -13 59 -40 75 -60 28 -35 29 -39 14 -60 -41 -62
-54 -69 -125 -66 l-67 3 -3 40 c-5 89 -11 105 -48 122 -18 9 -34 20 -34 24 0
35 115 33 188 -3z m495 -465 c24 -53 32 -82 32 -128 0 -58 -1 -60 -28 -63 -34
-4 -56 12 -74 56 -12 29 -12 44 4 118 9 46 21 84 26 84 4 0 22 -30 40 -67z
m107 -304 c79 -62 131 -82 206 -77 62 4 62 4 68 -25 9 -45 7 -148 -5 -255 -12
-113 -53 -247 -106 -350 -44 -84 -156 -247 -161 -232 -2 5 17 72 42 149 35
107 46 155 46 204 0 68 -24 155 -45 163 -7 3 -38 -2 -69 -11 -63 -19 -89 -14
-128 23 -66 61 -77 225 -24 332 42 83 73 120 101 120 13 0 47 -18 75 -41z
m-1523 -121 c-3 -8 -6 -5 -6 6 -1 11 2 17 5 13 3 -3 4 -12 1 -19z m679 -100
l69 -21 -43 -9 c-33 -7 -53 -6 -82 6 -20 8 -46 12 -58 10 -21 -6 -37 9 -27 26
10 16 68 11 141 -12z"/>
</g>
</svg>
